<svg width="243" height="253" viewBox="0 0 243 253" fill="none" xmlns="http://www.w3.org/2000/svg">
<g filter="url(#filter0_ii_1_6)">
<path d="M168.112 20.3965C212.112 32.3965 215.612 71.3964 223.112 79.8964C230.612 88.3964 229.112 100.896 230.612 131.396C232.112 161.896 234.612 157.396 223.112 182.896C211.612 208.396 195.112 223.396 181.612 231.896C168.112 240.396 163.612 237.896 136.612 240.396C109.612 242.896 107.612 238.396 88.1121 231.896C68.6121 225.396 54.6121 220.396 44.6121 211.396C34.6121 202.396 36.1121 185.896 28.6121 169.396C21.1121 152.896 13.6121 149.896 12.1121 131.396C10.6121 112.896 9.61209 104.896 16.1121 88.3964C22.6121 71.8964 36.1121 55.3965 36.1121 55.3965C36.1121 55.3965 46.1121 43.3964 52.6121 35.8964C59.1121 28.3964 71.6121 15.3964 104.112 12.8964C136.612 10.3964 124.112 8.39649 168.112 20.3965Z" fill="#FF82FF"/>
</g>
<path d="M36.1121 55.3965L31.8869 51.8754L31.871 51.8945L31.8553 51.9136L36.1121 55.3965ZM36.1121 55.3965C31.8553 51.9136 31.8548 51.9142 31.8543 51.9149L31.853 51.9165L31.8494 51.9209L31.8385 51.9342L31.8023 51.9787C31.7718 52.0163 31.7287 52.0697 31.6735 52.1382C31.5632 52.2753 31.4048 52.4734 31.2034 52.7285C30.8005 53.2385 30.225 53.9768 29.5171 54.9112C28.1028 56.7782 26.1533 59.4367 23.9947 62.6263C19.7124 68.9539 14.459 77.587 10.9948 86.3806C7.57712 95.0563 6.03731 101.756 5.62158 108.823C5.25414 115.07 5.78326 121.515 6.4364 129.472C6.50002 130.247 6.56482 131.036 6.63008 131.841C7.45395 142.002 9.99508 148.167 13.3655 153.925C14.4289 155.742 15.4801 157.387 16.5339 159.036C18.8269 162.625 21.1326 166.233 23.6051 171.672C26.392 177.804 27.8063 183.833 29.2442 189.964C29.5997 191.479 29.9567 193.001 30.3361 194.532C32.1557 201.873 34.5765 209.764 40.9328 215.485C51.9444 225.395 67.1401 230.703 86.3728 237.114C90.5871 238.519 93.9453 239.822 97.0252 241.017C97.3989 241.162 97.7685 241.306 98.1351 241.448C101.487 242.745 104.677 243.947 108.178 244.848C115.357 246.696 123.317 247.151 137.119 245.873C143.768 245.257 149.032 244.949 153.445 244.7C153.692 244.686 153.937 244.673 154.18 244.659C158.223 244.431 161.713 244.235 164.836 243.857C171.892 243.001 177.16 241.199 184.543 236.551C198.823 227.559 216.121 211.778 228.126 185.158C233.752 172.682 236.468 166.544 237.206 159.603C237.572 156.168 237.447 152.673 237.18 148.383C237.097 147.049 236.999 145.632 236.893 144.093C236.651 140.571 236.365 136.407 236.105 131.126C235.806 125.033 235.625 119.535 235.463 114.607C235.23 107.551 235.036 101.665 234.588 96.883C233.803 88.5078 232.15 81.8271 227.236 76.2575C226.832 75.7989 226.223 74.8409 225.373 73.0417C224.59 71.3846 223.773 69.3964 222.786 66.9932L222.629 66.611C220.559 61.5713 217.911 55.1884 214.028 48.6504C206.155 35.394 193.223 21.5441 169.559 15.0903C164.66 13.7542 160.43 12.5827 156.754 11.5648C152.248 10.317 148.576 9.29994 145.526 8.49339C139.97 7.02366 136.048 6.13137 132.384 5.74007C128.641 5.34032 125.369 5.48458 121.164 5.84639C119.67 5.9749 118.091 6.12725 116.326 6.29762C113.001 6.61841 109.015 7.00307 103.69 7.41265C86.7447 8.71615 74.6999 12.7866 65.9157 17.7278C57.1169 22.6771 51.8812 28.3419 48.4558 32.2943C45.178 36.0764 41.0315 40.9771 37.7158 44.9183C36.0556 46.8918 34.599 48.6302 33.5575 49.8754C33.0366 50.4981 32.6194 50.9976 32.3322 51.3416L32.0022 51.7371L31.9164 51.84L31.8945 51.8663L31.8889 51.873L31.8874 51.8748L31.887 51.8752C31.8869 51.8754 31.8869 51.8754 36.1121 55.3965Z" stroke="white" stroke-width="11"/>
<path d="M36.1121 55.3965L31.8869 51.8754L31.871 51.8945L31.8553 51.9136L36.1121 55.3965ZM36.1121 55.3965C31.8553 51.9136 31.8548 51.9142 31.8543 51.9149L31.853 51.9165L31.8494 51.9209L31.8385 51.9342L31.8023 51.9787C31.7718 52.0163 31.7287 52.0697 31.6735 52.1382C31.5632 52.2753 31.4048 52.4734 31.2034 52.7285C30.8005 53.2385 30.225 53.9768 29.5171 54.9112C28.1028 56.7782 26.1533 59.4367 23.9947 62.6263C19.7124 68.9539 14.459 77.587 10.9948 86.3806C7.57712 95.0563 6.03731 101.756 5.62158 108.823C5.25414 115.07 5.78326 121.515 6.4364 129.472C6.50002 130.247 6.56482 131.036 6.63008 131.841C7.45395 142.002 9.99508 148.167 13.3655 153.925C14.4289 155.742 15.4801 157.387 16.5339 159.036C18.8269 162.625 21.1326 166.233 23.6051 171.672C26.392 177.804 27.8063 183.833 29.2442 189.964C29.5997 191.479 29.9567 193.001 30.3361 194.532C32.1557 201.873 34.5765 209.764 40.9328 215.485C51.9444 225.395 67.1401 230.703 86.3728 237.114C90.5871 238.519 93.9453 239.822 97.0252 241.017C97.3989 241.162 97.7685 241.306 98.1351 241.448C101.487 242.745 104.677 243.947 108.178 244.848C115.357 246.696 123.317 247.151 137.119 245.873C143.768 245.257 149.032 244.949 153.445 244.7C153.692 244.686 153.937 244.673 154.18 244.659C158.223 244.431 161.713 244.235 164.836 243.857C171.892 243.001 177.16 241.199 184.543 236.551C198.823 227.559 216.121 211.778 228.126 185.158C233.752 172.682 236.468 166.544 237.206 159.603C237.572 156.168 237.447 152.673 237.18 148.383C237.097 147.049 236.999 145.632 236.893 144.093C236.651 140.571 236.365 136.407 236.105 131.126C235.806 125.033 235.625 119.535 235.463 114.607C235.23 107.551 235.036 101.665 234.588 96.883C233.803 88.5078 232.15 81.8271 227.236 76.2575C226.832 75.7989 226.223 74.8409 225.373 73.0417C224.59 71.3846 223.773 69.3964 222.786 66.9932L222.629 66.611C220.559 61.5713 217.911 55.1884 214.028 48.6504C206.155 35.394 193.223 21.5441 169.559 15.0903C164.66 13.7542 160.43 12.5827 156.754 11.5648C152.248 10.317 148.576 9.29994 145.526 8.49339C139.97 7.02366 136.048 6.13137 132.384 5.74007C128.641 5.34032 125.369 5.48458 121.164 5.84639C119.67 5.9749 118.091 6.12725 116.326 6.29762C113.001 6.61841 109.015 7.00307 103.69 7.41265C86.7447 8.71615 74.6999 12.7866 65.9157 17.7278C57.1169 22.6771 51.8812 28.3419 48.4558 32.2943C45.178 36.0764 41.0315 40.9771 37.7158 44.9183C36.0556 46.8918 34.599 48.6302 33.5575 49.8754C33.0366 50.4981 32.6194 50.9976 32.3322 51.3416L32.0022 51.7371L31.9164 51.84L31.8945 51.8663L31.8889 51.873L31.8874 51.8748L31.887 51.8752C31.8869 51.8754 31.8869 51.8754 36.1121 55.3965Z" stroke="black" stroke-width="11"/>
<defs>
<filter id="filter0_ii_1_6" x="0.00183105" y="0.000169754" width="242.932" height="252.098" filterUnits="userSpaceOnUse" color-interpolation-filters="sRGB">
<feFlood flood-opacity="0" result="BackgroundImageFix"/>
<feBlend mode="normal" in="SourceGraphic" in2="BackgroundImageFix" result="shape"/>
<feColorMatrix in="SourceAlpha" type="matrix" values="0 0 0 0 0 0 0 0 0 0 0 0 0 0 0 0 0 0 127 0" result="hardAlpha"/>
<feOffset dx="29" dy="-37"/>
<feComposite in2="hardAlpha" operator="arithmetic" k2="-1" k3="1"/>
<feColorMatrix type="matrix" values="0 0 0 0 0 0 0 0 0 0 0 0 0 0 0 0 0 0 0.25 0"/>
<feBlend mode="normal" in2="shape" result="effect1_innerShadow_1_6"/>
<feColorMatrix in="SourceAlpha" type="matrix" values="0 0 0 0 0 0 0 0 0 0 0 0 0 0 0 0 0 0 127 0" result="hardAlpha"/>
<feOffset dx="-11" dy="13"/>
<feComposite in2="hardAlpha" operator="arithmetic" k2="-1" k3="1"/>
<feColorMatrix type="matrix" values="0 0 0 0 1 0 0 0 0 1 0 0 0 0 1 0 0 0 0.75 0"/>
<feBlend mode="normal" in2="effect1_innerShadow_1_6" result="effect2_innerShadow_1_6"/>
</filter>
</defs>
</svg>
